<svg xmlns="http://www.w3.org/2000/svg" version="1.1" xmlns:xlink="http://www.w3.org/1999/xlink" xmlns:svgjs="http://svgjs.dev/svgjs" width="2000" height="517" viewBox="0 0 2000 517"><g transform="matrix(1,0,0,1,-0.17203654455283868,-4.0627583333332495)"><svg viewBox="0 0 232 60" data-background-color="#ffffff" preserveAspectRatio="xMidYMid meet" height="517" width="2000" xmlns="http://www.w3.org/2000/svg" xmlns:xlink="http://www.w3.org/1999/xlink"><g id="tight-bounds" transform="matrix(1,0,0,1,0.019956239168124057,0.4714999999999918)"><svg viewBox="0 0 231.96008752166375 59.056999999999995" height="59.056999999999995" width="231.96008752166375"><g><svg viewBox="0 0 231.96008752166375 59.056999999999995" height="59.056999999999995" width="231.96008752166375"><g><svg viewBox="0 0 231.96008752166375 59.056999999999995" height="59.056999999999995" width="231.96008752166375"><g id="textblocktransform"><svg viewBox="0 0 231.96008752166375 59.056999999999995" height="59.056999999999995" width="231.96008752166375" id="textblock"><g><svg viewBox="0 0 231.96008752166375 59.056999999999995" height="59.056999999999995" width="231.96008752166375"><g><svg><g></g><g></g></svg></g><g><svg><g><svg></svg></g><g></g></svg></g><g id="text-0"><svg viewBox="0 0 231.96008752166375 59.056999999999995" height="59.056999999999995" width="231.96008752166375"><g transform="matrix(1,0,0,1,0,0)"><svg width="154.9235" viewBox="2.5 -35.5 95.74 36.5" height="59.056999999999995" data-palette-color="#6a8f7b"><path d="M10.5-18.7Q11.7-18.5 12.38-18.28 13.05-18.05 13.05-17.6L13.05-17.6 13.05-2.5Q13.05-1.6 11.78-1.3 10.5-1 9.3-1L9.3-1 2.5-1 2.5-35.5 8.15-35.5Q9.7-35.5 11.13-35 12.55-34.5 12.55-33.1L12.55-33.1 12.5-32.6 11.05-19.85Q11.05-19.3 10.95-19.1 10.85-18.9 10.5-18.7L10.5-18.7ZM5.35-20.75Q5.35-20.35 5.95-20.35L5.95-20.35 7.85-21.1Q8.3-21.2 8.3-21.55L8.3-21.55 8.8-32.35Q8.8-32.55 8.1-32.55L8.1-32.55 5.95-32.55Q5.35-32.55 5.35-32.35L5.35-32.35 5.35-20.75ZM7.75-3.8Q8.65-3.8 9.03-4.2 9.4-4.6 9.4-5L9.4-5Q9.4-5.3 9.3-5.3L9.3-5.3 9.3-16.55Q9.45-16.65 9.45-16.7L9.45-16.7Q9.45-16.85 9.1-16.85L9.1-16.85 7-16.85Q6.85-16.85 6.68-16.75 6.5-16.65 6.45-16.55L6.45-16.55 6.45-3.95Q6.5-3.9 6.65-3.85 6.8-3.8 7-3.8L7-3.8 7.75-3.8ZM27-35.5L29.05 0 26.85 0 25.05-13.3 21.05-11.4 19.95 0 16.85 0 19.1-35.5 27-35.5ZM24.4-33.1Q24.4-33.4 24.1-33.4L24.1-33.4 21.95-32.9Q21.65-32.75 21.65-32.4L21.65-32.4 21.65-14.8Q21.65-14.55 21.95-14.55L21.95-14.55 23.8-14.85Q24.1-14.85 24.1-15.15L24.1-15.15 24.4-33.1ZM45.45-35.5L44.45 1 41.05 1 36.15-27.7 35.95-27.7 34.99 1 32.45 1 34.05-35.5 37.09-35.5 42.15-6.55 42.5-6.55 42.5-35.5 45.45-35.5ZM61.39-1.05L60.49 0 57.54 0 54.89-16.9 53.79-16.05 53.79 0 50.44 0 49.79-35 51.09-35.5 53.19-35.5 53.19-18.6 56.74-21.6 56.19-34.35 60.49-35.5 59.44-20.05 57.39-18.45 61.39-1.05ZM68.19-35.5L69.24-1 65.04-1 65.04-35.5 68.19-35.5ZM83.24-28.45L81.39-28.45 80.39-32.35 77.39-32 76.64-20.9 83.89-19.6 83.19-3Q83.19-2 81.89-1 80.59 0 79.49 0L79.49 0 73.64 0 73.19-8.55 76.14-8.55 76.09-4.2 79.59-3.4 80.39-16.7 73.64-18.2 73.64-34.3 75.64-35.5 83.49-35.5 83.24-28.45ZM87.64-35.5L97.99-34.8 98.24-31.65 93.84-31.65 93.84 0 89.59 0 90.59-30.75 86.99-31.95 87.64-35.5Z" opacity="1" transform="matrix(1,0,0,1,0,0)" fill="#000000" class="wordmark-text-0" data-fill-palette-color="primary"></path></svg></g><g><svg xmlns="http://www.w3.org/2000/svg" xmlns:xlink="http://www.w3.org/1999/xlink" version="1.1" x="168.8665" y="3.552713678800501e-15" viewBox="5 7.879 90 84.24199999999999" enable-background="new 0 0 100 100" xml:space="preserve" height="59.05699999999999" width="63.09358752166378" class="icon-dxe-0" data-fill-palette-color="accent" id="dxe-0"><path d="M87.397 79.588V73.014H81.027V44.937H92.326L92.948 35.003 49.998 7.879 7.057 35.001 7.67 44.936H18.974V73.014H12.603V79.588H5V92.121H95V79.588zM28.53 73.014V44.937H35.209V73.014zM49.998 73.014H44.761V44.937H55.238V73.014zM64.794 73.014V44.937H71.474V73.014z" fill="#000000" data-fill-palette-color="accent"></path></svg></g></svg></g></svg></g></svg></g></svg></g><g></g></svg></g><defs></defs></svg><rect width="231.96008752166375" height="59.056999999999995" fill="none" stroke="none" visibility="hidden"></rect></g></svg></g></svg>